<mxfile host="app.diagrams.net" modified="2022-03-15T12:15:11.663Z" agent="5.0 (Windows NT 10.0; Win64; x64) AppleWebKit/537.36 (KHTML, like Gecko) Chrome/99.0.4844.51 Safari/537.36" etag="FzmFON9fRL59_RJo2ciJ" version="17.1.2" type="github">
  <diagram id="98ulaVGrUqKvfP1slPlh" name="Page-1">
    <mxGraphModel dx="1038" dy="675" grid="1" gridSize="10" guides="1" tooltips="1" connect="1" arrows="1" fold="1" page="1" pageScale="1" pageWidth="827" pageHeight="1169" math="0" shadow="0">
      <root>
        <mxCell id="WIyWlLk6GJQsqaUBKTNV-0" />
        <mxCell id="WIyWlLk6GJQsqaUBKTNV-1" parent="WIyWlLk6GJQsqaUBKTNV-0" />
        <mxCell id="u47XiuEMVVHvU2_7_9uJ-14" style="edgeStyle=orthogonalEdgeStyle;rounded=0;orthogonalLoop=1;jettySize=auto;html=1;entryX=0;entryY=0.5;entryDx=0;entryDy=0;" edge="1" parent="WIyWlLk6GJQsqaUBKTNV-1" source="PXTuvbfgaTEx21Wf-bXd-0" target="u47XiuEMVVHvU2_7_9uJ-7">
          <mxGeometry relative="1" as="geometry">
            <Array as="points">
              <mxPoint x="390" y="110" />
              <mxPoint x="390" y="110" />
            </Array>
          </mxGeometry>
        </mxCell>
        <mxCell id="PXTuvbfgaTEx21Wf-bXd-0" value="" style="shape=image;verticalLabelPosition=bottom;labelBackgroundColor=default;verticalAlign=top;aspect=fixed;imageAspect=0;image=data:image/png,iVBORw0KGgoAAAANSUhEUgAAATEAAAEvCAMAAAAaZwaxAAAAAXNSR0IArs4c6QAAAARnQU1BAACxjwv8YQUAAAA/UExURQAAAAAAAAAAAAAAAAAAAAAAAAAAAAAAAAAAAAAAAAAAAAAAAAAAAAAAAAAAAAAAAAAAAAAAAAAAAAAAAAAAALMlgi8AAAAUdFJOUwABEBEgITBAQVBgcICPn6+/z9/vMGrfTQAAAAlwSFlzAAAXEQAAFxEByibzPwAABSxJREFUeF7t3e1ao0gUAGGHzSZrvhHv/1pXnaOAdJQiJIGm3l87kqxSkyZwiM88SZIkSZIkSZIkSZIkSZIkSZLmojhUh/hP9bEpX19fy238Sb8pDm+93h1X8RX9pNhWEezNLr6oyz4WZK1cx9eV9nbEj1RfDkVsU0JzQdZ8B7jk24KsuTSTEguy5slZ1+Yl4qRVLs229SnKXFZ6clb7cUHWXJqfflmQNZfmh9XvC7J2dmn2XJC1pS/Ni6dgly16pPE1pGAWO9JoDSmYZY40BizI2gKvm/AR/7uljTSGL8jakt4BNufY6essZmlevSBryzg5631N1McCrpt6DCmYzEcaIy7IWs5Lc9QFWct2aa6OsYfjy3Kk0XtBVqfD7nm7hycg+S3NvtdE5+evc/kdOuaVz/G0PPQdUlS71rUPG21kNNLoPaTonCk8x4aechlp9B5SvHQvrjexqacsrpv6n4JVm3hK0y429jX/kca2/ynYPp7Shqdo8z45W4NzhMSafLeOzf3NeGmya6L0S+zpacB1wlxPzuA10aVXxpC7J7O8bqJDipd4Xgdflu9mN9LgQ4oyntlRxAOoeS3NAfeJjvHUrngA9jKfpVkMGVKc4sld8YABTvNYmgOnhhdX5SoeMMilN+ApGXrjtorndww78n+a/Ehj4Ccp3l1aQfvYPtSkRxpXfJJi1DPYb6Y70rjqkxSXliUc+CRN9Lpp4BG/ljyBKq76W/gyxZMzMKS4JDXtGX5c/GZqJ2ej3LituouHjsd+MKnrpqsXZOjMFNnNkd9MZ2mOeOO2tVOj3+CcyEhj3E9S1HeTNiO9cFsmsDTHWpAN5+N+fziP8x7Z9eiled0p2EM8dKQxaEjxeA+7brrBgryXx4w0Zrggaw8YaVwxpJiG+yzNYvVpjE+XP9ou9mW1ut199GtHVVN1uzMOi1EWoyxGWYyyGGUxymKUxSiLURajLEZZjLIYZTHKYpTFKItR2/JTfKt5i30py3vcWspgzP/6+id25i4sRlmMshhlMcpiVNxM/rCNH6ChjE0Nid+Rr2JTU2xqWsemhsRf2CY2NSTOgbax6UPsy/0lWiR+ySjRIvUJ/tjUlLjHn/gYaeIj+4lfuZ7G79xYjLIYZTHKYpTFKItRFqMsRlmMshhlMcpilMUoi1EWoyxGWYyyGGUxymKUxSiLURajLEZZjLIYZTHKYpTFKItRFqMsRlmMshhlMcpilMUoi1EWoyxGWYyyGGUxymKUxSiLURajLEZZjLIYZTHKYpTFKItRFqMsRlmMshhlMcpilMUoi1EWoyxGWYyyGGUxymKUxSiLURajLEZZjLIYZTHKYpTFKItRFqMsRlmMshhlMcpilMUoi1EWoyxGWYyyGGUxymKUxSiLURajLEZZjLIYZTHKYpTFKItRFqMsRlmsj/2hdoyfpqGKTQ39HnWITU2xpSnxr/wfY1NDous5Nn2IfbmPxI88P39iZ+7CYpTFKItRFoMKizHrMr7nvJWJc7jb2GXxCnu3jz26reIU3y4H5Sr26oY22bzA/trGft1KkbqMmbdj7NptbBKXarNX3e4NoEhdAefgVm8A65wO+W3lv7GPo9pm+gL7axd7OZ4iMd/KyikxuLxGlof8tmrM+Wy2h/y28YaymVxG/m6sC828D/ltY7wBZH/Ibzv/E/s92Cr/Q35bde2p2Tr+R8vxX+z5UBajLEZZjLIYZTHKYpTFKItRFqMsRlkMWy3NyNNrSZIkSZIkSZIkSZIkSZIkSTP09PQ/zoDN8o9qvsUAAAAASUVORK5CYII=;" parent="WIyWlLk6GJQsqaUBKTNV-1" vertex="1">
          <mxGeometry x="280" y="47.39" width="95" height="94.38" as="geometry" />
        </mxCell>
        <mxCell id="u47XiuEMVVHvU2_7_9uJ-2" style="edgeStyle=orthogonalEdgeStyle;rounded=0;orthogonalLoop=1;jettySize=auto;html=1;" edge="1" parent="WIyWlLk6GJQsqaUBKTNV-1" source="u47XiuEMVVHvU2_7_9uJ-0" target="PXTuvbfgaTEx21Wf-bXd-0">
          <mxGeometry relative="1" as="geometry">
            <Array as="points">
              <mxPoint x="250" y="110" />
              <mxPoint x="250" y="110" />
            </Array>
          </mxGeometry>
        </mxCell>
        <mxCell id="u47XiuEMVVHvU2_7_9uJ-0" value="Actor" style="shape=umlActor;verticalLabelPosition=bottom;verticalAlign=top;html=1;outlineConnect=0;" vertex="1" parent="WIyWlLk6GJQsqaUBKTNV-1">
          <mxGeometry x="70" y="79.99999999999999" width="30" height="60" as="geometry" />
        </mxCell>
        <mxCell id="u47XiuEMVVHvU2_7_9uJ-3" value="Deposit CASH" style="rounded=1;whiteSpace=wrap;html=1;fontSize=12;glass=0;strokeWidth=1;shadow=0;" vertex="1" parent="WIyWlLk6GJQsqaUBKTNV-1">
          <mxGeometry x="160" y="90" width="60" height="30" as="geometry" />
        </mxCell>
        <mxCell id="u47XiuEMVVHvU2_7_9uJ-6" value="BRANCH" style="text;html=1;strokeColor=#6c8ebf;fillColor=#dae8fc;align=center;verticalAlign=middle;whiteSpace=wrap;rounded=0;fontStyle=1" vertex="1" parent="WIyWlLk6GJQsqaUBKTNV-1">
          <mxGeometry x="265" y="130" width="115" height="18.23" as="geometry" />
        </mxCell>
        <mxCell id="u47XiuEMVVHvU2_7_9uJ-16" value="" style="edgeStyle=orthogonalEdgeStyle;rounded=0;orthogonalLoop=1;jettySize=auto;html=1;" edge="1" parent="WIyWlLk6GJQsqaUBKTNV-1" source="u47XiuEMVVHvU2_7_9uJ-7" target="u47XiuEMVVHvU2_7_9uJ-8">
          <mxGeometry relative="1" as="geometry" />
        </mxCell>
        <mxCell id="u47XiuEMVVHvU2_7_9uJ-7" value="Login to Mobile Banking App" style="rounded=1;whiteSpace=wrap;html=1;" vertex="1" parent="WIyWlLk6GJQsqaUBKTNV-1">
          <mxGeometry x="430" y="90" width="140" height="40" as="geometry" />
        </mxCell>
        <mxCell id="u47XiuEMVVHvU2_7_9uJ-17" style="edgeStyle=orthogonalEdgeStyle;rounded=0;orthogonalLoop=1;jettySize=auto;html=1;entryX=0;entryY=0.75;entryDx=0;entryDy=0;" edge="1" parent="WIyWlLk6GJQsqaUBKTNV-1" source="u47XiuEMVVHvU2_7_9uJ-8" target="u47XiuEMVVHvU2_7_9uJ-9">
          <mxGeometry relative="1" as="geometry">
            <Array as="points">
              <mxPoint x="690" y="170" />
              <mxPoint x="300" y="170" />
              <mxPoint x="300" y="220" />
            </Array>
          </mxGeometry>
        </mxCell>
        <mxCell id="u47XiuEMVVHvU2_7_9uJ-8" value="Select Current / Savings Account" style="rounded=1;whiteSpace=wrap;html=1;" vertex="1" parent="WIyWlLk6GJQsqaUBKTNV-1">
          <mxGeometry x="620" y="90.00000000000001" width="140" height="40" as="geometry" />
        </mxCell>
        <mxCell id="u47XiuEMVVHvU2_7_9uJ-18" value="" style="edgeStyle=orthogonalEdgeStyle;rounded=0;orthogonalLoop=1;jettySize=auto;html=1;" edge="1" parent="WIyWlLk6GJQsqaUBKTNV-1" source="u47XiuEMVVHvU2_7_9uJ-9" target="u47XiuEMVVHvU2_7_9uJ-10">
          <mxGeometry relative="1" as="geometry" />
        </mxCell>
        <mxCell id="u47XiuEMVVHvU2_7_9uJ-9" value="Fill Deposit Amount, Denomination Details" style="rounded=1;whiteSpace=wrap;html=1;" vertex="1" parent="WIyWlLk6GJQsqaUBKTNV-1">
          <mxGeometry x="320" y="190" width="140" height="40" as="geometry" />
        </mxCell>
        <mxCell id="u47XiuEMVVHvU2_7_9uJ-19" value="" style="edgeStyle=orthogonalEdgeStyle;rounded=0;orthogonalLoop=1;jettySize=auto;html=1;" edge="1" parent="WIyWlLk6GJQsqaUBKTNV-1" source="u47XiuEMVVHvU2_7_9uJ-10" target="u47XiuEMVVHvU2_7_9uJ-12">
          <mxGeometry relative="1" as="geometry" />
        </mxCell>
        <mxCell id="u47XiuEMVVHvU2_7_9uJ-10" value="Review Details" style="rounded=1;whiteSpace=wrap;html=1;" vertex="1" parent="WIyWlLk6GJQsqaUBKTNV-1">
          <mxGeometry x="500" y="190" width="90" height="40" as="geometry" />
        </mxCell>
        <mxCell id="u47XiuEMVVHvU2_7_9uJ-20" value="" style="edgeStyle=orthogonalEdgeStyle;rounded=0;orthogonalLoop=1;jettySize=auto;html=1;" edge="1" parent="WIyWlLk6GJQsqaUBKTNV-1" source="u47XiuEMVVHvU2_7_9uJ-12" target="u47XiuEMVVHvU2_7_9uJ-13">
          <mxGeometry relative="1" as="geometry" />
        </mxCell>
        <mxCell id="u47XiuEMVVHvU2_7_9uJ-12" value="OTP Validation (SLA)" style="rounded=1;whiteSpace=wrap;html=1;" vertex="1" parent="WIyWlLk6GJQsqaUBKTNV-1">
          <mxGeometry x="630" y="190" width="90" height="40" as="geometry" />
        </mxCell>
        <mxCell id="u47XiuEMVVHvU2_7_9uJ-13" value="QR Code Generated" style="whiteSpace=wrap;html=1;aspect=fixed;fillColor=#d5e8d4;strokeColor=#82b366;fontStyle=1" vertex="1" parent="WIyWlLk6GJQsqaUBKTNV-1">
          <mxGeometry x="780" y="170" width="80" height="80" as="geometry" />
        </mxCell>
        <mxCell id="u47XiuEMVVHvU2_7_9uJ-21" style="edgeStyle=orthogonalEdgeStyle;rounded=0;orthogonalLoop=1;jettySize=auto;html=1;entryX=0;entryY=0.5;entryDx=0;entryDy=0;" edge="1" parent="WIyWlLk6GJQsqaUBKTNV-1" target="u47XiuEMVVHvU2_7_9uJ-28">
          <mxGeometry relative="1" as="geometry">
            <Array as="points" />
            <mxPoint x="350" y="383" as="sourcePoint" />
          </mxGeometry>
        </mxCell>
        <mxCell id="u47XiuEMVVHvU2_7_9uJ-23" style="edgeStyle=orthogonalEdgeStyle;rounded=0;orthogonalLoop=1;jettySize=auto;html=1;" edge="1" parent="WIyWlLk6GJQsqaUBKTNV-1" source="u47XiuEMVVHvU2_7_9uJ-24">
          <mxGeometry relative="1" as="geometry">
            <Array as="points">
              <mxPoint x="250" y="382.61" />
              <mxPoint x="250" y="382.61" />
            </Array>
            <mxPoint x="280" y="382.5999999999999" as="targetPoint" />
          </mxGeometry>
        </mxCell>
        <mxCell id="u47XiuEMVVHvU2_7_9uJ-24" value="Actor" style="shape=umlActor;verticalLabelPosition=bottom;verticalAlign=top;html=1;outlineConnect=0;" vertex="1" parent="WIyWlLk6GJQsqaUBKTNV-1">
          <mxGeometry x="70" y="352.61" width="30" height="60" as="geometry" />
        </mxCell>
        <mxCell id="u47XiuEMVVHvU2_7_9uJ-26" value="TELLER" style="text;html=1;strokeColor=#6c8ebf;fillColor=#dae8fc;align=center;verticalAlign=middle;whiteSpace=wrap;rounded=0;fontStyle=1" vertex="1" parent="WIyWlLk6GJQsqaUBKTNV-1">
          <mxGeometry x="265" y="402.61" width="115" height="18.23" as="geometry" />
        </mxCell>
        <mxCell id="u47XiuEMVVHvU2_7_9uJ-27" value="" style="edgeStyle=orthogonalEdgeStyle;rounded=0;orthogonalLoop=1;jettySize=auto;html=1;" edge="1" parent="WIyWlLk6GJQsqaUBKTNV-1" source="u47XiuEMVVHvU2_7_9uJ-28" target="u47XiuEMVVHvU2_7_9uJ-30">
          <mxGeometry relative="1" as="geometry" />
        </mxCell>
        <mxCell id="u47XiuEMVVHvU2_7_9uJ-28" value="SCAN QR Code" style="rounded=1;whiteSpace=wrap;html=1;" vertex="1" parent="WIyWlLk6GJQsqaUBKTNV-1">
          <mxGeometry x="430" y="362.61" width="140" height="40" as="geometry" />
        </mxCell>
        <mxCell id="u47XiuEMVVHvU2_7_9uJ-29" style="edgeStyle=orthogonalEdgeStyle;rounded=0;orthogonalLoop=1;jettySize=auto;html=1;entryX=0;entryY=0.75;entryDx=0;entryDy=0;" edge="1" parent="WIyWlLk6GJQsqaUBKTNV-1" source="u47XiuEMVVHvU2_7_9uJ-30" target="u47XiuEMVVHvU2_7_9uJ-32">
          <mxGeometry relative="1" as="geometry">
            <Array as="points">
              <mxPoint x="690" y="442.61" />
              <mxPoint x="300" y="442.61" />
              <mxPoint x="300" y="492.61" />
            </Array>
          </mxGeometry>
        </mxCell>
        <mxCell id="u47XiuEMVVHvU2_7_9uJ-41" value="" style="edgeStyle=orthogonalEdgeStyle;rounded=0;orthogonalLoop=1;jettySize=auto;html=1;" edge="1" parent="WIyWlLk6GJQsqaUBKTNV-1" source="u47XiuEMVVHvU2_7_9uJ-30" target="u47XiuEMVVHvU2_7_9uJ-40">
          <mxGeometry relative="1" as="geometry" />
        </mxCell>
        <mxCell id="u47XiuEMVVHvU2_7_9uJ-30" value="Prefill Cash Deposit Details in Core Banking" style="rounded=1;whiteSpace=wrap;html=1;" vertex="1" parent="WIyWlLk6GJQsqaUBKTNV-1">
          <mxGeometry x="620" y="362.61" width="140" height="40" as="geometry" />
        </mxCell>
        <mxCell id="u47XiuEMVVHvU2_7_9uJ-31" value="" style="edgeStyle=orthogonalEdgeStyle;rounded=0;orthogonalLoop=1;jettySize=auto;html=1;" edge="1" parent="WIyWlLk6GJQsqaUBKTNV-1" source="u47XiuEMVVHvU2_7_9uJ-32" target="u47XiuEMVVHvU2_7_9uJ-34">
          <mxGeometry relative="1" as="geometry" />
        </mxCell>
        <mxCell id="u47XiuEMVVHvU2_7_9uJ-32" value="Fill Deposit Amount, Denomination Details" style="rounded=1;whiteSpace=wrap;html=1;" vertex="1" parent="WIyWlLk6GJQsqaUBKTNV-1">
          <mxGeometry x="320" y="462.61" width="140" height="40" as="geometry" />
        </mxCell>
        <mxCell id="u47XiuEMVVHvU2_7_9uJ-33" value="" style="edgeStyle=orthogonalEdgeStyle;rounded=0;orthogonalLoop=1;jettySize=auto;html=1;" edge="1" parent="WIyWlLk6GJQsqaUBKTNV-1" source="u47XiuEMVVHvU2_7_9uJ-34" target="u47XiuEMVVHvU2_7_9uJ-36">
          <mxGeometry relative="1" as="geometry" />
        </mxCell>
        <mxCell id="u47XiuEMVVHvU2_7_9uJ-34" value="Review Details" style="rounded=1;whiteSpace=wrap;html=1;" vertex="1" parent="WIyWlLk6GJQsqaUBKTNV-1">
          <mxGeometry x="500" y="462.61" width="90" height="40" as="geometry" />
        </mxCell>
        <mxCell id="u47XiuEMVVHvU2_7_9uJ-35" value="" style="edgeStyle=orthogonalEdgeStyle;rounded=0;orthogonalLoop=1;jettySize=auto;html=1;" edge="1" parent="WIyWlLk6GJQsqaUBKTNV-1" source="u47XiuEMVVHvU2_7_9uJ-36">
          <mxGeometry relative="1" as="geometry">
            <mxPoint x="780" y="482.6100000000001" as="targetPoint" />
          </mxGeometry>
        </mxCell>
        <mxCell id="u47XiuEMVVHvU2_7_9uJ-36" value="OTP Validation (SLA)" style="rounded=1;whiteSpace=wrap;html=1;" vertex="1" parent="WIyWlLk6GJQsqaUBKTNV-1">
          <mxGeometry x="630" y="462.61" width="90" height="40" as="geometry" />
        </mxCell>
        <mxCell id="u47XiuEMVVHvU2_7_9uJ-38" value="QR Code Generated" style="whiteSpace=wrap;html=1;aspect=fixed;fillColor=#d5e8d4;strokeColor=#82b366;fontStyle=1" vertex="1" parent="WIyWlLk6GJQsqaUBKTNV-1">
          <mxGeometry x="150" y="342.61" width="80" height="80" as="geometry" />
        </mxCell>
        <mxCell id="u47XiuEMVVHvU2_7_9uJ-39" value="" style="shape=actor;whiteSpace=wrap;html=1;" vertex="1" parent="WIyWlLk6GJQsqaUBKTNV-1">
          <mxGeometry x="303" y="343" width="40" height="60" as="geometry" />
        </mxCell>
        <mxCell id="u47XiuEMVVHvU2_7_9uJ-40" value="CASH Deposited in Account" style="rounded=1;whiteSpace=wrap;html=1;fillColor=#fff2cc;strokeColor=#d6b656;" vertex="1" parent="WIyWlLk6GJQsqaUBKTNV-1">
          <mxGeometry x="800" y="362.61" width="140" height="40" as="geometry" />
        </mxCell>
      </root>
    </mxGraphModel>
  </diagram>
</mxfile>
